<svg width="191" height="64" viewBox="0 0 191 64" fill="none" xmlns="http://www.w3.org/2000/svg">
<path fill-rule="evenodd" clip-rule="evenodd" d="M32.2565 39.9831C34.1296 39.9831 37.4806 43.3513 38.3716 44.2423C39.312 45.1827 39.7818 46.5934 39.3116 48.0036C38.6494 49.9915 33.1969 55.0596 32.2565 56C31.316 55.0596 25.8636 49.9915 25.2009 48.0036C24.7311 46.5934 25.2009 45.1827 26.1409 44.2423L26.343 44.0405C27.4582 42.9307 30.5042 39.9831 32.2565 39.9831ZM97.4512 26.3918C102.484 26.3918 106.705 30.3287 106.705 37.0257C106.705 43.4794 102.362 47.6597 97.0046 47.6597C94.1229 47.6597 91.9311 46.4419 90.4701 44.6159V55.3711H85.3562V26.9605H90.4701V29.8417C91.8099 27.8937 94.3666 26.3918 97.4512 26.3918ZM121.69 26.3918C126.723 26.3918 130.943 30.3287 130.943 37.0257C130.943 43.4794 126.601 47.6597 121.244 47.6597C118.361 47.6597 116.17 46.4419 114.709 44.6159V55.3711H109.595V26.9605H114.709V29.8417C116.048 27.8937 118.605 26.3918 121.69 26.3918ZM69.3475 26.3918C72.5542 26.3918 74.4619 27.447 75.7196 29.2331V26.9605H80.8339V47.0914H75.7196V44.4938C74.5426 46.4419 72.5941 47.6597 69.51 47.6597C63.9899 47.6597 59.7285 43.7227 59.7285 37.0257C59.7285 30.3287 64.5991 26.3918 69.3475 26.3918ZM144.295 26.1507C150.412 26.1507 154.311 30.6677 154.311 36.3312V38.1359H138.521C138.848 41.2554 141.025 43.2248 144.102 43.2248C146.934 43.2248 148.576 41.7905 149.726 39.4907L153.702 41.776C151.895 45.4705 148.983 47.6592 143.883 47.6592C138.344 47.6592 133.42 43.3101 133.42 36.9036C133.42 30.5025 138.053 26.1507 144.295 26.1507ZM169.551 26.3919C173.893 26.3919 176.613 29.1519 176.613 33.3725V47.0915H171.499V35.4835C171.499 32.8451 170.281 31.1812 167.399 31.1812C164.68 31.1812 162.732 33.4542 162.732 36.8633V47.0915H157.618V26.9601H162.732V30.2072C164.233 27.8938 166.628 26.3919 169.551 26.3919ZM43.2622 29.9449C45.2502 30.6071 50.3182 36.0596 51.2587 37C50.3182 37.9405 45.2502 43.3929 43.2622 44.0551C41.852 44.5253 40.4414 44.0556 39.5009 43.1151C38.61 42.2242 35.2417 38.8732 35.2417 37C35.2417 35.1269 38.61 31.7759 39.5009 30.8849C40.4414 29.9445 41.852 29.4747 43.2622 29.9449ZM25.0058 30.8849C25.8968 31.7759 29.2645 35.1269 29.2645 37C29.2645 38.8732 25.8968 42.2242 25.0058 43.1151C24.0654 44.0556 22.6547 44.5253 21.2445 44.0551C19.2565 43.3929 14.1885 37.9405 13.248 37C14.1885 36.0596 19.2565 30.6071 21.2445 29.9449C22.6547 29.4747 24.0654 29.9445 25.0058 30.8849ZM70.4845 31.1816C67.237 31.1816 64.9236 33.6166 64.9236 37.0257C64.9236 40.4353 67.237 42.8703 70.4845 42.8703C73.7311 42.8703 76.0445 40.4353 76.0445 37.0257C76.0445 33.6166 73.7311 31.1816 70.4845 31.1816ZM95.8277 31.1816C92.5398 31.1816 90.1456 33.7383 90.1456 37.0257C90.1456 40.3136 92.5398 42.8703 95.8277 42.8703C99.1156 42.8703 101.51 40.3136 101.51 37.0257C101.51 33.7383 99.1156 31.1816 95.8277 31.1816ZM120.066 31.1816C116.778 31.1816 114.384 33.7383 114.384 37.0257C114.384 40.3136 116.778 42.8703 120.066 42.8703C123.354 42.8703 125.748 40.3136 125.748 37.0257C125.748 33.7383 123.354 31.1816 120.066 31.1816ZM144.102 30.0927C141.312 30.0927 139.3 31.9399 138.521 34.3619H149.438C148.946 31.7348 147.059 30.0927 144.102 30.0927ZM32.2565 18C33.1969 18.9404 38.6494 24.0085 39.3116 25.9964C39.7818 27.4066 39.312 28.8173 38.3716 29.7577C37.4806 30.6487 34.1296 34.0169 32.2565 34.0169C30.3833 34.0169 27.0319 30.6487 26.1409 29.7577C25.2009 28.8173 24.7311 27.4066 25.2009 25.9964C25.8636 24.0085 31.316 18.9404 32.2565 18Z" fill="#EF4126"/>
</svg>
