<svg width="207" height="64" viewBox="0 0 207 64" fill="none" xmlns="http://www.w3.org/2000/svg">
<path fill-rule="evenodd" clip-rule="evenodd" d="M26.7621 29.1523C26.46 28.8503 26.46 28.3756 26.7621 28.0736L32.4575 22.335C32.7595 22.033 33.2341 22.033 33.5362 22.335L45.0565 33.8553C45.8763 34.7183 45.8763 36.099 45.0565 36.9619L33.2341 48.7843C33.1047 48.9137 32.889 49 32.6732 49H21.2824C20.8509 49 20.5057 48.6548 20.5057 48.2234C20.5057 48.0076 20.592 47.7919 20.7646 47.6624L32.4575 35.9695C32.7595 35.6675 32.7595 35.1929 32.4575 34.8909L26.7621 29.1523ZM18.9093 34.8477C19.2113 35.1497 19.2113 35.6244 18.9093 35.9264L13.257 41.665C12.955 41.967 12.4803 41.967 12.1783 41.665L0.614848 30.1447C-0.204949 29.2817 -0.204949 27.901 0.614848 27.0381L12.4372 15.2157C12.6098 15.0863 12.7824 15 12.9981 15H24.389C24.8204 15 25.1656 15.3452 25.1656 15.7766C25.1656 15.9924 25.0793 16.2081 24.9067 16.3376L13.2138 28.0736C12.9118 28.3756 12.9118 28.8503 13.2138 29.1523L18.9093 34.8477ZM59.2519 35.1066C60.4169 36.1853 62.2722 36.8325 63.9981 36.8325C65.2494 36.8325 66.1986 36.2284 66.1986 35.3655C66.1986 32.7335 57.7849 33.6827 57.7849 28.1168C57.7849 24.7944 61.0209 22.7233 64.4296 22.7233C66.6732 22.7233 69.1758 23.5863 70.2976 24.4924L68.0971 27.8579C67.191 27.2107 66.026 26.6929 64.7747 26.6929C63.4803 26.6929 62.4017 27.2107 62.4017 28.0736C62.4017 30.3173 70.8154 29.4112 70.8154 35.4518C70.8154 38.7741 67.5793 40.802 63.9118 40.802C61.4956 40.802 58.9499 39.9822 56.922 38.4721C57.0082 38.4289 59.2519 35.1066 59.2519 35.1066ZM78.2367 34.3299C79.1859 35.6675 80.7824 36.4873 82.422 36.4873C85.0539 36.4873 86.9956 34.5025 86.9956 31.7411C86.9956 29.2386 85.2265 26.9949 82.5083 26.9949C80.8255 26.9949 79.2291 27.7716 78.1935 29.1523C78.2367 29.1523 78.2367 34.3299 78.2367 34.3299ZM73.5768 23.0685H78.0641V24.4492C79.4016 23.3274 81.1707 22.6802 83.1555 22.6802C87.9017 22.6802 91.6555 26.6066 91.6555 31.7411C91.6555 34.1142 90.8357 36.2716 89.455 37.8249C87.9017 39.5939 85.4423 40.7589 82.8534 40.7589C81.0844 40.7589 79.6174 40.2411 78.1935 39.1624V48.9568H73.5336L73.5768 23.0685ZM105.506 29.4975C105.376 27.9442 103.952 26.434 102.054 26.434C100.112 26.434 98.559 27.901 98.3433 29.4975H105.506ZM109.864 37.6523C108.181 39.6371 105.419 40.7589 102.744 40.7589C97.5666 40.7589 93.6402 37.1777 93.6402 31.7411C93.6402 26.9086 96.9194 22.6802 102.097 22.6802C106.886 22.6802 110.295 26.736 110.295 31.5685C110.295 32.0431 110.252 32.5178 110.166 32.9061H98.1275C98.3864 35.3223 100.328 37.0051 102.831 37.0051C104.815 37.0051 106.369 35.8832 107.188 35.0203L109.864 37.6523ZM112.97 40.4137V23.0685H117.458V24.4492C118.838 23.3274 120.564 22.6802 122.376 22.6802C124.706 22.6802 126.907 23.7157 128.374 25.4848C129.539 26.8223 130.143 28.5914 130.143 31.5685V40.4137H125.483V31.2233C125.483 29.4975 125.095 28.5914 124.447 27.9442C123.843 27.3401 122.894 26.9949 121.815 26.9949C119.831 26.9949 118.234 28.2462 117.587 29.1523V40.4137H112.97ZM146.107 29.1523C145.115 27.8147 143.518 26.9949 141.793 26.9949C139.074 26.9949 137.305 29.2386 137.305 31.7411C137.305 34.4594 139.29 36.4873 141.879 36.4873C143.562 36.4873 145.115 35.7107 146.064 34.3299L146.107 29.1523ZM146.28 40.4137V39.033C144.856 40.2411 143.216 40.802 141.447 40.802C138.859 40.802 136.442 39.6371 134.889 37.868C133.465 36.1853 132.645 34.0279 132.688 31.7843C132.688 26.6497 136.485 22.7233 141.188 22.7233C143.087 22.7233 144.727 23.2411 146.107 24.3198V15H150.767V40.4137C150.724 40.4137 146.28 40.4137 146.28 40.4137ZM165.394 29.4975C165.265 27.9442 163.841 26.434 161.942 26.434C160.001 26.434 158.447 27.901 158.232 29.4975H165.394ZM169.752 37.6523C168.069 39.6371 165.308 40.7589 162.633 40.7589C157.455 40.7589 153.529 37.1777 153.529 31.7411C153.529 26.9086 156.808 22.6802 161.985 22.6802C166.775 22.6802 170.183 26.736 170.183 31.5685C170.183 32.0431 170.14 32.5178 170.097 32.9061H158.059C158.318 35.3223 160.26 37.0051 162.762 37.0051C164.747 37.0051 166.3 35.8832 167.12 35.0203L169.752 37.6523ZM174.541 35.1066C175.706 36.1853 177.562 36.8325 179.287 36.8325C180.539 36.8325 181.488 36.2284 181.488 35.3655C181.488 32.7335 173.074 33.6827 173.074 28.1168C173.074 24.7944 176.31 22.7233 179.719 22.7233C181.963 22.7233 184.465 23.5863 185.587 24.4924L183.386 27.8579C182.48 27.2107 181.315 26.6929 180.064 26.6929C178.77 26.6929 177.691 27.2107 177.691 28.0736C177.691 30.3173 186.105 29.4112 186.105 35.4518C186.105 38.7741 182.869 40.802 179.201 40.802C176.785 40.802 174.239 39.9822 172.211 38.4721L174.541 35.1066ZM197.194 30.8782L206.772 40.4569H200.516L193.181 32.9492V40.4569H188.521V15H193.181V28.6777L199.178 23.0685H205.737L197.194 30.8782Z" fill="#6E00FF"/>
</svg>
