<svg width="226" height="64" viewBox="0 0 226 64" fill="none" xmlns="http://www.w3.org/2000/svg">
<path d="M77.1417 25.528C77.1417 26.8619 77.1417 27.8783 77.1417 29.4027C79.1108 27.0525 81.1435 25.6551 83.9383 25.5915C86.7332 25.528 89.0199 26.2903 89.9092 29.5298C90.4174 28.9581 90.7985 28.577 91.1796 28.1323C93.2758 25.9727 95.8801 25.2104 98.7385 25.6551C101.279 26.0362 102.931 28.0688 102.994 31.0543C103.058 35.1196 103.058 39.1213 103.058 43.1866C103.058 44.3935 102.994 45.6004 104.646 45.7909C104.836 45.7909 105.218 46.4261 105.091 46.6167C104.963 46.9343 104.582 47.3154 104.265 47.3154C100.644 47.3789 97.0235 47.3154 92.8312 47.3154C93.3393 46.5532 93.6569 46.1085 93.911 45.6639C94.2286 45.1557 94.8638 44.7111 94.8638 44.2029C94.9273 40.2012 94.9273 36.1994 94.8003 32.1976C94.8003 31.4989 94.038 30.4191 93.5299 30.292C92.45 30.1015 91.3067 30.4826 90.1633 30.7367C89.9727 30.8002 89.9092 31.4989 89.9092 31.88C89.9092 35.8183 89.9092 39.7565 89.9092 43.6948C89.9092 44.6476 90.0363 45.3463 91.1161 45.6639C91.4337 45.7909 91.6243 46.4261 92.1324 47.1884C88.0036 47.1884 84.383 47.1884 80.7623 47.1884C80.5083 47.1884 80.1271 46.8072 80.0636 46.5532C80.0636 46.2991 80.3177 45.7274 80.5083 45.7274C81.7787 45.4733 81.8422 44.5205 81.7787 43.5042C81.7787 39.9471 81.8422 36.39 81.7151 32.7693C81.7151 31.9435 81.207 30.6096 80.6353 30.4191C79.619 30.1015 78.4121 30.4191 77.2687 30.5461C77.0782 30.5461 76.8241 31.2448 76.8241 31.6259C76.8241 35.7547 76.7606 39.9471 76.8241 44.0759C76.8241 44.584 77.4593 45.0922 77.8404 45.6004C78.0945 45.918 78.2851 46.2991 78.5391 46.6167C78.2215 46.8072 77.9039 47.1884 77.5863 47.1884C74.2833 47.2519 70.9802 47.2519 67.6772 47.1884C67.3596 47.1884 66.9785 46.7437 66.6609 46.4896C66.915 46.172 67.2326 45.8544 67.4867 45.5368C67.9313 44.9652 68.63 44.3935 68.63 43.7583C68.757 39.6295 68.757 35.4371 68.63 31.3083C68.63 30.6731 67.8678 30.1015 67.4867 29.4663C67.2326 29.0851 66.6609 28.6405 66.7244 28.2594C66.7879 27.9418 67.3596 27.5607 67.8043 27.4336C70.0275 26.7984 72.3142 26.1632 74.6009 25.5915C75.4902 25.5915 76.1889 25.5915 77.1417 25.528Z" fill="#243543"/>
<path d="M23.3403 27.6877C22.8321 27.3066 22.2605 26.989 21.8158 26.5443C21.4982 26.2903 21.3712 25.7821 21.2441 25.401C19.9737 22.6061 17.8776 21.3357 14.7651 21.4627C11.3985 21.5898 11.9067 21.0816 11.8432 24.3211C11.8432 26.4808 11.8432 28.577 11.8432 30.7367C11.8432 31.626 12.1608 32.0071 13.05 31.9436C13.4947 31.88 14.0028 31.9436 14.511 31.9436C16.7342 31.88 17.3059 31.4989 17.687 29.4028C17.8776 28.2594 18.3857 27.9418 19.5926 28.3864C19.5926 31.2448 19.5926 34.1668 19.5926 37.0887C19.5926 37.4063 19.148 37.9144 18.8939 37.9144C18.5128 37.9144 17.9411 37.5968 17.8141 37.2792C16.4801 34.0397 15.8449 33.6586 11.9067 34.4208C11.9067 37.4698 11.8432 40.5188 11.9702 43.6312C11.9702 44.2029 12.7324 45.0922 13.2406 45.2192C15.5908 45.8544 18.8939 45.8545 20.5454 43.1231C21.2441 41.9162 22.0064 40.7728 22.6416 39.566C23.1497 38.4861 23.912 38.232 25.1189 38.6767C24.7377 41.281 24.4201 43.9488 23.9755 46.5532C23.912 46.8708 23.3403 47.3154 23.0227 47.3154C15.5908 47.3154 8.22252 47.3154 0.790673 47.2519C0.727153 47.2519 0.727154 47.1884 0.600114 47.1248C0.600114 46.7437 0.600114 46.2356 0.600114 45.8544C3.26796 45.1557 3.26796 45.0922 3.33148 42.3608C3.33148 36.4535 3.33148 30.5461 3.33148 24.6387C3.33148 23.0507 3.26796 21.6533 1.1718 21.3992C0.854195 21.3357 0.663635 20.5099 0.218994 19.8112C1.10827 19.7477 1.55291 19.6842 1.99756 19.6842C8.66716 19.6842 15.3368 19.6842 22.0064 19.6207C23.3403 19.6207 23.7849 20.0018 23.7214 21.3357C23.6579 23.3048 23.7214 25.274 23.7214 27.2431C23.5309 27.3701 23.4038 27.4972 23.3403 27.6877Z" fill="#243543"/>
<path d="M36.7431 30.8637C36.7431 35.1196 36.7431 39.3754 36.7431 43.6313C36.7431 44.6476 36.8067 45.5369 38.0771 45.7909C38.3311 45.8545 38.7123 46.3626 38.7123 46.6802C38.7123 46.9343 38.2041 47.3154 37.8865 47.3789C34.3929 47.4425 30.8358 47.4425 27.3422 47.3789C27.0246 47.3789 26.7705 46.9978 26.4529 46.7437C26.707 46.4261 26.961 45.918 27.2786 45.7909C28.3585 45.5369 28.6126 44.9017 28.6126 43.8853C28.6126 36.4535 28.6126 29.0852 28.549 21.6533C28.549 21.0816 27.7868 20.4464 27.4057 19.8748C27.1516 19.4936 26.834 19.1125 26.5164 18.7314C26.8975 18.4773 27.2786 18.0327 27.7233 17.9692C30.137 17.3975 32.6143 16.9528 35.0916 16.4447C36.2985 16.1906 36.8067 16.5082 36.8067 17.9056C36.6796 22.225 36.7431 26.5444 36.7431 30.8637Z" fill="#243543"/>
<path d="M119.954 35.3101C118.303 35.3101 116.651 35.3736 115 35.3101C113.793 35.2466 113.539 35.7547 113.729 36.8346C114.174 39.2483 115.127 41.281 117.541 42.1702C120.081 43.0595 122.432 42.6149 124.591 40.8998C124.972 40.5822 125.544 40.3917 125.989 40.1376C125.925 40.7093 126.052 41.281 125.862 41.7891C124.655 45.4098 121.923 47.3789 118.303 47.8871C114.555 48.3952 111.189 47.1883 108.711 44.2664C104.519 39.4389 105.535 28.1323 114.746 25.9091C120.971 24.3846 126.116 27.9418 126.179 33.9126C126.179 34.9925 125.862 35.4371 124.782 35.3736C123.13 35.2466 121.542 35.3101 119.954 35.3101ZM113.412 33.5315C114.555 33.5315 115.19 33.595 115.762 33.5315C116.905 33.4045 118.112 33.2774 119.256 33.1504C119.065 31.6894 119.065 30.165 118.684 28.831C118.493 28.1958 117.541 27.4336 116.905 27.3701C116.27 27.3066 115.19 27.9418 114.873 28.5134C114.238 29.9744 113.92 31.6259 113.412 33.5315Z" fill="#243543"/>
<path d="M213.202 31.8165C211.995 32.2612 211.487 32.0071 211.106 30.9272C210.407 28.8311 209.009 27.4336 206.723 27.2431C205.389 27.116 204.245 27.4972 203.801 28.9581C203.42 30.4191 204.182 31.3084 205.452 31.8165C207.04 32.4517 208.628 32.9599 210.216 33.6586C213.646 35.1196 215.044 37.4063 214.79 40.8999C214.536 44.2665 212.694 46.2991 209.136 47.3789C205.579 48.5223 202.276 47.8236 199.1 46.3626C198.592 46.1085 198.147 45.3463 198.02 44.7111C197.83 43.4407 197.83 42.1068 197.766 40.7728C198.973 40.3282 199.672 40.5188 200.18 41.7892C201.26 44.7746 203.42 46.2356 206.024 46.1085C207.421 46.045 208.565 45.5369 208.882 44.0124C209.2 42.4879 208.374 41.5351 207.04 41.0269C205.325 40.3282 203.483 39.82 201.832 39.0578C198.402 37.4698 197.068 34.3573 198.02 30.7367C198.783 27.8148 200.942 26.3538 203.737 25.8456C206.469 25.3375 209.136 25.5916 211.741 26.6079C212.757 27.0525 213.329 27.5607 213.202 28.7676C213.138 29.7204 213.202 30.7367 213.202 31.8165Z" fill="#243543"/>
<path d="M141.932 28.0688C140.662 28.0688 139.391 28.0688 137.994 28.0688C137.93 28.5135 137.867 28.8311 137.867 29.1487C137.867 33.1504 137.867 37.1522 137.867 41.154C137.867 43.5042 139.074 44.2664 141.297 43.5677C141.805 43.3772 142.44 43.4407 142.949 43.4407C142.694 44.0124 142.567 44.6476 142.25 45.0922C139.963 47.8236 135.898 48.7128 132.722 47.1884C130.499 46.1085 129.673 44.1394 129.673 41.7892C129.609 37.9144 129.673 34.0397 129.673 30.1015C129.673 29.5298 129.673 28.9581 129.673 28.2594C128.911 28.1323 128.339 28.0688 127.132 27.9418C127.704 27.2431 128.021 26.6714 128.466 26.3538C130.816 24.6387 133.166 22.9237 135.517 21.2087C136.025 20.8275 136.724 20.7005 137.295 20.4464C137.486 20.9546 137.803 21.5263 137.867 22.0344C137.93 23.2413 137.867 24.4482 137.867 25.9091C138.883 25.9091 139.709 25.9091 140.535 25.9091C142.25 25.9727 142.313 26.0362 141.932 28.0688Z" fill="#243543"/>
<path d="M189.763 33.5951C189.763 32.1341 190.017 30.9272 189.699 29.8474C189.445 28.9581 188.747 27.8783 187.921 27.4972C186.714 26.9255 185.571 27.7512 185.062 28.8946C183.411 32.5152 183.22 36.2629 185.253 39.7565C187.031 42.869 191.668 43.3137 194.463 40.8364C194.781 40.5188 195.289 40.4553 195.734 40.2647C195.734 40.7729 195.924 41.281 195.734 41.6621C194.59 45.2828 191.923 47.1884 188.429 47.7601C184.872 48.3317 181.696 47.0613 179.282 44.33C175.09 39.566 176.106 27.6877 185.507 25.8456C187.667 25.401 190.144 25.8456 192.367 26.3538C193.447 26.6079 194.59 27.8148 195.162 28.9581C196.432 31.5625 195.035 33.5951 192.177 33.5951C191.478 33.5951 190.716 33.5951 189.763 33.5951Z" fill="#243543"/>
<path d="M154.446 30.9907C155.208 29.5933 155.526 28.4499 156.224 27.6242C156.923 26.7984 157.939 25.9091 158.956 25.6551C161.242 25.0199 161.941 25.7186 161.941 28.0688C161.941 29.2122 161.941 30.4191 161.878 31.5624C161.878 31.6895 161.751 31.88 161.751 32.0071C159.908 32.1976 158.066 32.3247 156.224 32.5787C154.89 32.7693 154.192 33.4045 154.319 34.929C154.446 37.6603 154.382 40.3282 154.319 43.0595C154.319 44.5205 154.827 45.4733 156.351 45.6003C157.368 45.7274 157.622 46.172 157.241 47.3154C156.288 47.3154 155.208 47.3154 154.192 47.3154C151.27 47.3154 148.348 47.3154 145.426 47.3154C145.045 47.3154 144.664 46.9343 144.283 46.7437C144.537 46.3626 144.854 46.045 145.108 45.6639C145.489 45.0922 146.252 44.457 146.252 43.8853C146.379 39.7565 146.379 35.5642 146.252 31.4354C146.252 30.8637 145.553 30.292 145.172 29.7203C144.854 29.2757 144.537 28.8311 144.219 28.3864C144.664 28.0688 145.108 27.6877 145.553 27.4971C147.649 26.8619 149.745 26.2903 151.841 25.7821C152.604 25.5915 153.366 25.5915 154.382 25.4645C154.446 27.3066 154.446 28.9581 154.446 30.9907Z" fill="#243543"/>
<path d="M162.767 47.3789C163.339 46.6167 163.529 45.9179 163.91 45.8544C165.054 45.5368 165.181 44.7746 165.181 43.8218C165.181 39.82 165.117 35.8183 165.181 31.8165C165.181 30.8637 164.927 30.2285 164.101 29.7203C163.656 29.4663 163.466 28.8946 163.148 28.4499C163.593 28.1959 164.037 27.7512 164.545 27.6242C166.705 26.989 168.865 26.4173 171.024 25.8456C173.121 25.2739 173.311 25.4645 173.311 27.5607C173.311 32.8328 173.311 38.105 173.311 43.3772C173.311 44.584 173.311 45.6639 174.836 45.8544C175.026 45.8544 175.344 46.4261 175.28 46.6802C175.28 46.9343 174.836 47.3154 174.582 47.3154C170.897 47.3789 167.15 47.3789 162.767 47.3789Z" fill="#243543"/>
<path d="M63.1039 25.7186C63.1039 27.4336 63.1039 29.1486 63.1039 30.8002C63.1039 35.056 63.1039 39.3118 63.1039 43.5677C63.1039 44.6475 63.2309 45.6003 64.5649 45.7909C64.8189 45.8544 65.2001 46.3626 65.1365 46.6802C65.1365 46.9342 64.6284 47.3154 64.3108 47.3154C60.8172 47.3789 57.2601 47.3789 53.7665 47.3154C53.4489 47.3154 53.0042 46.8707 52.9407 46.6167C52.9407 46.3626 53.3218 45.7909 53.5759 45.7274C54.8463 45.4733 54.9733 44.584 54.9733 43.5677C54.9733 39.5659 54.9098 35.5642 54.9733 31.5624C54.9733 30.419 54.4652 29.9744 53.6394 29.4662C52.8137 28.9581 52.369 28.0688 53.4489 27.6877C56.3073 26.7984 59.2927 26.1632 62.2146 25.4645C62.4687 25.528 62.7228 25.655 63.1039 25.7186Z" fill="#243543"/>
<path d="M36.9971 36.2629C38.8392 34.6114 40.5542 33.0869 42.2057 31.4989C42.6504 31.0543 43.1585 30.6732 43.6032 30.165C44.7465 28.8946 44.4924 28.1959 42.968 27.6242C42.5868 27.4972 42.3328 26.989 42.0152 26.6714C42.3963 26.4173 42.7774 25.9727 43.1585 25.9727C45.5088 25.9092 47.859 25.9092 50.2092 25.9727C50.5268 25.9727 51.035 26.3538 51.035 26.6079C51.0985 26.862 50.7809 27.4337 50.5268 27.5607C47.859 28.8946 46.0804 30.3556 43.7302 33.0869C46.3345 37.7874 49.6376 42.1068 52.3054 47.3789C49.2564 47.3789 46.7156 47.3789 44.1748 47.3789C43.8572 47.3789 43.4126 46.9978 43.222 46.6802C41.1259 43.2501 39.1568 39.8201 36.9971 36.2629Z" fill="#243543"/>
<path d="M225.652 43.3772C225.652 45.918 223.683 48.0141 221.332 47.9506C218.982 47.9506 217.076 45.8545 217.013 43.4407C217.013 40.9634 218.855 39.0578 221.332 39.0578C223.81 39.0578 225.652 40.8364 225.652 43.3772Z" fill="#243543"/>
<path d="M169.373 16.0635C171.533 16.0635 173.502 17.9056 173.565 20.0653C173.629 22.2885 171.787 24.0035 169.436 24.0035C167.023 24.0035 165.244 22.352 165.244 20.1288C165.244 17.9691 167.213 16.0635 169.373 16.0635Z" fill="#243543"/>
<path d="M59.1656 23.94C56.7519 23.94 55.0368 22.2885 55.1003 20.0018C55.1639 17.7786 57.0059 16 59.2927 16C61.4523 16 63.4215 17.9056 63.4215 20.0653C63.3579 22.2885 61.5159 24.0035 59.1656 23.94Z" fill="#243543"/>
</svg>
