<svg width="128" height="64" viewBox="0 0 128 64" fill="none" xmlns="http://www.w3.org/2000/svg">
<g clip-path="url(#clip0)">
<path d="M6.43326 51.0838C4.68872 50.5549 3.92438 50.2193 3.92438 49.2215C3.92438 48.3286 5.11357 48.0117 6.13204 48.0117C7.02295 48.0117 7.98058 48.2766 8.63111 48.7024C8.78515 48.8025 8.97452 48.8329 9.15113 48.7839C9.32775 48.7368 9.47689 48.6141 9.5593 48.4503L9.85562 47.8576C10.0008 47.5652 9.90566 47.2101 9.63191 47.0305C8.69488 46.4182 7.36538 46.0385 6.16245 46.0385C3.63493 46.0385 1.93552 47.3366 1.93552 49.2686C1.93552 51.7784 4.05586 52.4133 5.75723 52.9245C7.53905 53.4582 8.31811 53.8016 8.3083 54.8623C8.3083 55.9269 7.05533 56.3056 5.88282 56.3056C4.75936 56.3056 3.53681 55.7081 2.79406 55.0222C2.6459 54.8858 2.45457 54.8073 2.25637 54.8299C2.05719 54.8525 1.8796 54.9673 1.77657 55.14L1.43512 55.7169C1.28304 55.971 1.32523 56.2958 1.53618 56.5038C2.63805 57.589 4.29723 58.264 5.86712 58.264C8.51631 58.264 10.2962 56.8894 10.2962 54.8515C10.3168 52.2622 8.16308 51.6087 6.43326 51.0838Z" fill="#254A9A"/>
<path d="M18.1053 46.4448C18.0003 46.2161 17.7717 46.069 17.5195 46.069H16.819C16.5658 46.069 16.3372 46.2161 16.2332 46.4467L11.2939 57.3368C11.2037 57.537 11.2203 57.7676 11.3381 57.952C11.4578 58.1375 11.6609 58.2474 11.8797 58.2474H12.5959C12.8491 58.2474 13.0787 58.0992 13.1827 57.8686L14.4141 55.1469H19.9578L21.2039 57.8716C21.3088 58.1002 21.5375 58.2474 21.7886 58.2474H22.5059C22.7257 58.2474 22.9288 58.1355 23.0475 57.9511C23.1662 57.7676 23.1819 57.536 23.0907 57.3349L18.1053 46.4448ZM15.2765 53.2041L17.1643 49.0194L19.0737 53.2041H15.2765Z" fill="#254A9A"/>
<path d="M26.323 46.0699H25.6695C25.3143 46.0699 25.0259 46.3584 25.0259 46.7136V57.6037C25.0259 57.9599 25.3143 58.2474 25.6695 58.2474H26.323C26.6782 58.2474 26.9667 57.9599 26.9667 57.6037V46.7136C26.9667 46.3584 26.6782 46.0699 26.323 46.0699Z" fill="#254A9A"/>
<path d="M39.9091 46.0699H39.2704C38.9132 46.0699 38.6257 46.3584 38.6257 46.7136V54.6455L32.513 46.3319C32.3913 46.1661 32.199 46.0699 31.9939 46.0699H31.2306C30.8744 46.0699 30.5869 46.3584 30.5869 46.7136V57.6037C30.5869 57.9599 30.8744 58.2474 31.2306 58.2474H31.884C32.2402 58.2474 32.5287 57.9599 32.5287 57.6037V49.6758L38.6257 57.9864C38.7464 58.1502 38.9397 58.2474 39.1458 58.2474H39.9091C40.2643 58.2474 40.5528 57.9599 40.5528 57.6037V46.7136C40.5528 46.3584 40.2643 46.0699 39.9091 46.0699Z" fill="#254A9A"/>
<path d="M51.1418 46.0699H43.1324C42.7772 46.0699 42.4897 46.3584 42.4897 46.7136V47.3533C42.4897 47.7075 42.7772 47.996 43.1324 47.996H46.1672V57.6037C46.1672 57.9599 46.4557 58.2474 46.8109 58.2474H47.4634C47.8205 58.2474 48.109 57.9599 48.109 57.6037V47.996H51.1418C51.498 47.996 51.7855 47.7075 51.7855 47.3533V46.7136C51.7855 46.3584 51.498 46.0699 51.1418 46.0699Z" fill="#254A9A"/>
<path d="M55.932 52.0061H52.4566C52.1015 52.0061 51.813 52.2936 51.813 52.6498V53.1796C51.813 53.5358 52.1015 53.8233 52.4566 53.8233H55.932C56.2872 53.8233 56.5747 53.5358 56.5747 53.1796V52.6498C56.5747 52.2936 56.2872 52.0061 55.932 52.0061Z" fill="#254A9A"/>
<path d="M69.4632 51.6156H68.8706C68.8677 51.6156 68.8637 51.6166 68.8598 51.6166H66.9269C66.5707 51.6166 66.2822 51.905 66.2822 52.2602V52.9147C66.2822 53.2699 66.5707 53.5583 66.9269 53.5583H68.2279V55.5491C67.4695 56.0692 66.5579 56.3518 65.6307 56.3518C63.2278 56.3518 61.2733 54.4679 61.2733 52.1513C61.2733 49.8426 63.2278 47.9646 65.6307 47.9646C66.7463 47.9646 67.8443 48.3757 68.6439 49.093C68.7754 49.2107 68.9501 49.2706 69.1257 49.2559C69.3023 49.2421 69.4642 49.1558 69.5751 49.0184L69.9646 48.5357C70.1805 48.2658 70.1481 47.8734 69.8871 47.6457C68.7175 46.6204 67.2045 46.0533 65.6307 46.0533C62.1574 46.0533 59.3306 48.7878 59.3306 52.1513C59.3306 55.5217 62.1426 58.2621 65.5993 58.2621C67.1624 58.2621 68.7224 57.6891 69.8842 56.6893C70.0254 56.5676 70.1079 56.389 70.1079 56.2007V52.2592C70.1079 51.905 69.8184 51.6156 69.4632 51.6156Z" fill="#254A9A"/>
<path d="M78.5931 46.0533C75.1285 46.0533 72.3096 48.7878 72.3096 52.1503C72.3096 55.5217 75.1285 58.2621 78.5931 58.2621C82.0576 58.2621 84.8775 55.5217 84.8775 52.1503C84.8775 48.7878 82.0576 46.0533 78.5931 46.0533ZM78.5931 56.3361C76.2068 56.3361 74.266 54.4581 74.266 52.1503C74.266 49.8504 76.2068 47.9803 78.5931 47.9803C80.9783 47.9803 82.9191 49.8504 82.9191 52.1503C82.9191 54.4581 80.9783 56.3361 78.5931 56.3361Z" fill="#254A9A"/>
<path d="M95.1901 51.8138C95.8455 51.2496 96.2095 50.4185 96.2095 49.4079C96.2095 47.3484 94.6612 46.069 92.169 46.069H87.7125C87.3583 46.069 87.0698 46.3574 87.0698 46.7126V57.6037C87.0698 57.9589 87.3583 58.2474 87.7125 58.2474H92.2004C95.0527 58.2474 96.7541 56.912 96.7541 54.6759C96.7541 53.4102 96.1821 52.4035 95.1901 51.8138ZM92.1533 51.0082H89.0106V47.996H92.1533C93.1168 47.996 94.2678 48.2541 94.2678 49.4864C94.2678 50.4961 93.5564 51.0082 92.1533 51.0082ZM89.0106 52.9343H92.1533C93.1463 52.9343 94.8123 53.1501 94.8123 54.5964C94.8123 56.0221 93.367 56.3213 92.1533 56.3213H89.0106V52.9343" fill="#254A9A"/>
<path d="M104.657 46.4448C104.552 46.2161 104.324 46.069 104.072 46.069H103.371C103.117 46.069 102.888 46.2161 102.783 46.4467L97.845 57.3368C97.7548 57.537 97.7715 57.7676 97.8912 57.952C98.0099 58.1375 98.213 58.2474 98.4328 58.2474H99.149C99.4022 58.2474 99.6318 58.0992 99.7358 57.8686L100.967 55.1469H106.509L107.755 57.8716C107.86 58.1002 108.09 58.2474 108.341 58.2474H109.057C109.276 58.2474 109.481 58.1355 109.599 57.9511C109.717 57.7676 109.734 57.536 109.643 57.3349L104.657 46.4448ZM101.829 53.2041L103.716 49.0194L105.626 53.2041H101.829Z" fill="#254A9A"/>
<path d="M112.874 46.0699H112.219C111.864 46.0699 111.575 46.3584 111.575 46.7136V57.6037C111.575 57.9599 111.864 58.2474 112.219 58.2474H112.874C113.229 58.2474 113.519 57.9599 113.519 57.6037V46.7136C113.519 46.3584 113.229 46.0699 112.874 46.0699Z" fill="#254A9A"/>
<path d="M126.46 46.0699H125.821C125.465 46.0699 125.178 46.3584 125.178 46.7136V54.6455L119.064 46.3319C118.944 46.1661 118.75 46.0699 118.545 46.0699H117.782C117.426 46.0699 117.137 46.3584 117.137 46.7136V57.6037C117.137 57.9599 117.426 58.2474 117.782 58.2474H118.436C118.791 58.2474 119.079 57.9599 119.079 57.6037V49.6758L125.178 57.9864C125.299 58.1502 125.491 58.2474 125.696 58.2474H126.46C126.816 58.2474 127.103 57.9599 127.103 57.6037V46.7136C127.103 46.3584 126.816 46.0699 126.46 46.0699Z" fill="#254A9A"/>
<path d="M72.04 28.9817V39.6884H70.0688V27.509L72.04 28.9817ZM110.254 39.653H102.5L102.445 39.5991L95.6246 32.8534C95.347 32.5787 94.9192 32.4943 94.5571 32.6454C94.1902 32.7985 93.9527 33.1537 93.9527 33.5511V39.6884H91.9266V24.5007C91.9266 24.2318 91.8137 23.9718 91.6185 23.7873L85.9522 18.436C85.7697 18.2633 85.5293 18.1681 85.2781 18.1681H82.4454C81.9038 18.1681 81.4633 18.6087 81.4633 19.1493V39.6884H79.4528V6.71476C79.4528 6.31444 79.2134 5.95829 78.8435 5.80718C78.4805 5.65804 78.0448 5.7483 77.7721 6.02598L68.388 15.5483C68.2055 15.7328 68.1055 15.9781 68.1055 16.2371V23.5931L64.2631 20.7241C63.9138 20.4641 63.4017 20.4729 63.0622 20.7447L54.3257 27.7484C54.0922 27.9358 53.9588 28.2154 53.9588 28.5147V39.6884H51.9788V33.5295C51.9788 31.367 50.4893 29.068 47.7312 29.068C44.9721 29.068 43.4837 31.3777 43.4837 33.5511V39.6884L41.4811 39.6874V35.5095C41.4811 33.816 40.3155 32.0175 38.1549 32.0175C35.9943 32.0175 34.8287 33.8179 34.8287 35.5134V39.6893L32.8339 39.6903L32.833 39.5049C32.83 38.663 32.8271 37.5847 32.8271 37.152C32.8271 35.7136 31.4691 34.4528 29.9208 34.4528C28.3725 34.4528 27.0146 35.7077 27.0146 37.1393V39.6884L18.2663 39.6874C17.7247 39.6874 17.2852 40.1279 17.2842 40.6686C17.2842 40.9315 17.3862 41.1778 17.5717 41.3632C17.7571 41.5487 18.0034 41.6507 18.2654 41.6507L27.9957 41.6517C28.2577 41.6517 28.505 41.5497 28.6894 41.3642C28.8749 41.1788 28.9779 40.9325 28.9779 40.6705V37.3168C28.9779 36.9538 29.3733 36.4151 29.9208 36.4151C30.4605 36.4151 30.8647 36.9077 30.8647 37.3482C30.8647 37.6004 30.8745 40.6764 30.8745 40.6764C30.8775 41.2161 31.317 41.6546 31.8557 41.6546L35.8108 41.6517C36.3515 41.6517 36.792 41.2112 36.792 40.6705V35.5134C36.792 34.9826 37.0766 33.9798 38.1549 33.9798C39.2332 33.9798 39.5187 34.9797 39.5187 35.5095V40.6676C39.5187 41.2092 39.9583 41.6497 40.4989 41.6497L44.4639 41.6517C44.7229 41.6517 44.9761 41.5467 45.1586 41.3642C45.3411 41.1817 45.446 40.9286 45.446 40.6705V33.5511C45.446 32.6798 45.9239 31.0304 47.7312 31.0304C49.4071 31.0304 50.0154 32.5248 50.0154 33.5295V40.6705C50.0154 41.2112 50.456 41.6517 50.9966 41.6517H54.94C55.4816 41.6517 55.9211 41.2112 55.9211 40.6705V28.9856L55.9918 28.9287L63.697 22.7512L68.1055 26.0431V40.6705C68.1055 41.2112 68.546 41.6517 69.0866 41.6517H73.0222C73.5628 41.6517 74.0033 41.2112 74.0033 40.6705V28.4892C74.0033 28.182 73.8552 27.8877 73.6089 27.7032L70.0688 25.0589V16.6394L70.1228 16.5845L77.4895 9.10885V40.6705C77.4895 41.2112 77.93 41.6517 78.4706 41.6517H82.4454C82.9861 41.6517 83.4266 41.2112 83.4266 40.6705V20.1305H84.8876L84.9415 20.1815L89.9632 24.9235V40.6705C89.9632 41.2112 90.4038 41.6517 90.9444 41.6517H94.9339C95.4755 41.6517 95.9161 41.2112 95.9161 40.6705V35.902L101.406 41.3318C101.591 41.5143 101.837 41.6154 102.096 41.6154H110.254C110.796 41.6154 111.236 41.1748 111.236 40.6342C111.236 40.0926 110.796 39.653 110.254 39.653" fill="url(#paint0_linear)"/>
</g>
<defs>
<linearGradient id="paint0_linear" x1="17.1733" y1="23.6951" x2="111.496" y2="23.6951" gradientUnits="userSpaceOnUse">
<stop stop-color="#54B6AE"/>
<stop offset="0.1" stop-color="#54B6AE"/>
<stop offset="0.3" stop-color="#3B98DA"/>
<stop offset="0.42" stop-color="#254A9A"/>
<stop offset="0.55" stop-color="#ED1443"/>
<stop offset="0.84" stop-color="#F25C19"/>
<stop offset="1" stop-color="#F25C19"/>
</linearGradient>
<clipPath id="clip0">
<rect width="127.23" height="64" fill="white" transform="translate(0.608398)"/>
</clipPath>
</defs>
</svg>
