<svg width="121" height="64" viewBox="0 0 121 64" fill="none" xmlns="http://www.w3.org/2000/svg">
<path d="M58.9284 15.2545C59.1053 15.2545 59.4591 15.2545 59.636 15.0777C59.8129 14.9008 60.1666 14.547 60.5204 14.3701C60.8742 14.1932 61.5818 13.3087 61.9356 12.4243C62.2894 11.5398 62.82 11.0091 62.82 10.8322C62.9969 10.6553 62.8201 10.8322 62.6432 11.0091C62.4663 11.186 62.6432 10.8322 62.6432 10.8322C62.6432 10.8322 62.1125 11.186 61.9356 11.3629C61.7587 11.5398 59.2822 13.8394 58.5746 14.1932C58.5746 14.1932 58.3977 14.3701 58.2208 14.1932C58.044 14.1932 58.0439 14.3701 58.0439 14.547C58.0439 14.7239 58.7515 15.2545 58.9284 15.2545Z" fill="black"/>
<path d="M17.7619 18.0438C17.5851 18.0438 16.3468 18.0438 15.8161 18.0438C15.2855 18.0438 13.6934 17.867 13.1627 18.2207C13.1627 18.2207 12.6321 18.3976 12.6321 18.7514C12.2783 19.2821 12.2783 19.459 12.4552 19.8128C12.6321 20.1666 12.2783 20.6972 12.1014 21.051C11.9245 21.4048 9.97869 24.0582 9.27112 24.7658C8.56355 25.6502 7.50219 27.0654 6.08706 27.596C6.08706 27.596 4.31813 20.6972 13.3396 12.3833C13.3396 12.3833 13.6934 12.0295 13.8703 12.0295C14.0472 12.0295 14.2241 12.2064 14.5779 12.3833C14.9317 12.5602 15.4623 12.914 15.993 12.5602C16.5237 12.2064 16.8775 10.9681 16.1699 10.0837C15.4623 9.19922 14.2241 9.02233 13.3396 8.66855C12.4552 8.31476 11.04 8.49166 9.97868 8.66855C8.91733 8.84544 7.3253 10.6144 5.91017 13.2677C4.49503 15.9211 4.67192 16.098 4.31813 17.1594C3.96435 18.0438 1.66475 23.5275 3.43367 27.596C5.20259 31.4877 6.44084 30.2494 8.03287 29.8956C9.6249 29.5418 11.2169 27.7729 12.1014 26.3578C12.1014 26.3578 11.9245 27.7729 11.7476 29.5418C11.3938 31.3108 11.04 33.6104 11.2169 35.2024C11.3938 36.7944 11.5707 37.8558 11.7476 37.8558C11.9245 37.8558 12.4552 37.6789 12.809 36.4406C13.1628 35.2024 13.3396 35.2024 13.5165 34.3179C13.6934 33.4335 13.6934 33.0797 13.5165 32.549C13.5165 32.549 13.5165 30.957 13.8703 29.7187C13.8703 29.7187 14.2241 28.8343 14.401 28.1267C14.5779 27.4191 14.9317 27.0654 15.1086 26.1809C15.1086 26.1809 15.4624 24.2351 15.6392 23.3506C15.8161 22.4662 15.8161 22.4662 16.3468 21.4048C17.0544 20.5203 17.0544 20.3434 17.4082 19.6359C17.4082 19.6359 17.5851 19.1052 17.5851 18.9283C17.5851 18.7514 17.7619 18.3976 17.7619 18.3976C17.9388 18.2207 17.9388 18.0438 17.7619 18.0438Z" fill="black"/>
<path d="M71.6641 19.9426C71.6641 19.9426 70.9565 18.7043 71.1334 18.1736C71.4872 17.643 72.0179 17.8199 72.1948 18.1736C72.5485 18.5274 72.5486 19.0581 71.6641 19.9426ZM41.9462 21.7115C42.6538 20.4732 43.5382 19.235 43.5382 19.235C43.5382 19.235 44.0689 19.235 44.4227 19.235C44.7765 19.0581 45.1303 18.8812 45.1303 19.0581C45.1303 19.4119 43.5382 21.8884 42.8307 22.7728C42.1231 23.6573 41.2386 24.3649 41.2386 24.3649C41.2386 24.3649 41.2386 22.7728 41.9462 21.7115ZM22.4881 18.1736C22.4881 18.1736 21.9574 19.5888 20.896 21.1808C19.8347 22.7728 18.5964 23.6573 18.5964 22.4191C18.5964 21.3577 19.304 19.5888 19.8347 19.0581C20.1885 18.5274 21.9574 16.2278 23.0187 16.2278C23.0187 16.2278 22.665 17.4661 22.4881 18.1736ZM64.0577 21.1808C64.0577 20.6501 64.2346 20.2964 64.5884 20.4732C64.9422 20.4732 64.9422 21.1808 64.7653 21.7115C64.4115 22.4191 63.704 23.3035 63.704 23.3035C63.704 23.3035 63.8808 21.5346 64.0577 21.1808ZM77.6784 28.2565C77.5015 26.6645 75.9095 24.7187 74.4944 23.6573C72.9023 22.4191 72.0179 20.4732 72.0179 20.4732C72.1948 20.1195 73.433 18.8812 73.6099 17.9968C73.7868 17.2892 73.2561 17.1123 72.7254 16.9354C72.1948 16.7585 71.6641 16.7585 71.3103 16.7585C71.1334 16.7585 71.1334 16.9354 70.6027 17.2892C70.0721 17.643 69.8952 17.4661 69.8952 18.7043C69.7183 19.9426 70.6027 21.3577 70.6027 21.3577C70.0721 22.0653 68.6569 23.6573 67.0649 25.4262C65.4729 27.1952 64.2346 27.9027 64.2346 27.9027C63.7039 28.2565 63.704 27.7258 63.704 27.1952C63.704 26.6645 63.7039 26.3107 63.5271 25.78C63.3502 25.2493 63.5271 24.0111 63.5271 24.0111C63.5271 24.0111 63.704 23.8342 63.704 23.6573C63.704 23.4804 64.0577 23.3035 64.0577 23.1266C64.0577 22.9497 64.0577 23.1266 64.0577 23.1266C64.0577 23.1266 64.0577 23.3035 63.8808 23.3035C63.7039 23.4804 63.704 23.6573 63.704 23.6573L63.8808 23.4804C63.8808 23.4804 64.0577 23.3035 64.0577 23.1266C64.0577 22.9497 64.0577 23.1266 64.0577 23.1266C64.0577 23.1266 63.8808 23.3035 63.8808 23.4804C63.7039 23.6573 63.5271 23.8342 63.5271 23.8342C63.5271 23.8342 63.7039 23.6573 63.8808 23.6573C63.8808 23.6573 65.296 22.0653 65.8267 20.4732C66.1804 18.8812 65.1191 18.7043 64.9422 18.7043C64.5884 18.7043 64.5884 18.5274 63.8808 18.7043C63.1733 18.7043 62.6426 19.9426 61.7581 21.8884C60.8737 23.8342 61.0506 25.6031 61.0506 25.6031C61.0506 25.78 60.8737 25.78 60.8737 25.78C60.8737 25.6031 61.0506 25.6031 61.0506 25.6031C61.0506 25.78 61.0506 25.78 60.8737 25.78C60.8737 25.9569 60.8737 25.9569 60.6968 25.9569C60.6968 26.1338 60.5199 26.1338 60.5199 26.1338C60.5199 26.1338 60.5199 26.1338 60.6968 25.9569C58.5741 28.4334 56.982 29.141 56.8051 29.141C56.4514 29.141 56.6283 28.6103 56.6283 28.4334C56.6283 28.2565 56.8052 27.5489 56.982 27.1952C56.982 26.8414 57.1589 25.78 57.5127 25.2493C57.8665 24.7187 58.0434 24.3649 58.2203 23.4804C58.5741 22.596 59.8123 18.3505 59.8123 18.1736C59.8123 17.9968 59.8123 17.643 59.6354 17.2892C59.4585 17.1123 59.4585 16.9354 59.2817 16.7585C59.1048 16.5816 58.9279 16.5816 58.2203 16.5816C57.6896 16.5816 57.6896 16.5816 57.3358 16.5816C56.982 16.5816 56.982 17.1123 56.982 17.1123C56.8052 17.2892 56.8051 17.2892 56.8051 18.3505C56.982 19.4119 56.4514 20.827 55.0362 23.4804C53.6211 26.1338 52.206 27.9027 52.206 27.9027C52.206 27.9027 52.0291 26.1338 52.0291 25.4262C52.0291 24.7187 52.3829 23.4804 52.206 22.2422C52.0291 21.0039 50.7908 20.2964 49.7295 19.7657C48.845 19.0581 49.5526 18.1736 49.5526 17.8199C49.5526 17.4661 49.3757 17.2892 48.845 17.4661C48.4912 17.4661 48.4912 17.4661 48.3143 17.643C48.1374 17.8199 48.4912 17.4661 48.1374 18.1736C47.7836 18.8812 48.1374 19.9426 48.1374 19.9426C48.1374 19.9426 47.4299 21.0039 46.8992 22.0653C46.3685 23.1266 44.0689 26.4876 43.5382 27.0183C43.0075 27.5489 42.1231 28.4334 41.5924 27.9027C41.0617 27.372 41.2386 25.6031 41.2386 25.6031C41.2386 25.6031 41.9462 24.7187 42.4769 24.0111C43.1845 23.3035 43.3613 22.7728 43.3613 22.7728C43.3613 22.7728 43.7151 22.7728 45.3071 20.827C46.8992 18.8812 46.7223 17.9968 46.7223 17.4661C46.7223 16.9354 46.0147 16.5816 45.3071 16.0509C44.5996 15.6972 44.2458 15.6972 44.0689 15.874C43.892 16.0509 43.7151 15.6972 43.7151 15.874C43.5382 16.0509 43.5382 16.0509 43.1844 16.2278C42.8307 16.4047 42.6538 16.7585 42.4769 16.7585C42.3 16.7585 41.9462 16.9354 42.1231 17.1123C42.3 17.4661 42.1231 17.643 42.1231 17.643C38.939 21.8884 39.6466 26.4876 39.6466 26.4876C39.2928 26.8414 38.2315 27.5489 37.8777 27.9027C37.7008 27.9027 37.347 28.0796 36.9932 28.0796C36.4625 28.0796 35.2243 27.7258 34.5167 26.6645C33.6323 25.2493 33.8092 20.827 34.3398 17.9968C34.6936 15.1665 36.6394 7.38322 36.8163 6.49875C36.9932 5.61429 36.9932 4.72983 36.9932 4.72983C36.9932 4.19915 37.5239 3.1378 37.5239 2.96091C37.7008 2.78401 37.7008 2.78402 37.5239 2.60712C37.347 2.60712 37.1701 2.25334 37.1701 2.25334C37.1701 2.25334 36.6394 2.07645 36.4625 2.25334C36.2856 2.25334 35.755 2.07645 35.4012 1.89956C35.0474 1.72266 34.6936 1.72266 34.6936 1.89956C34.5167 2.07645 34.5167 2.25334 34.5167 2.07644L34.3398 1.89956C34.3398 2.07645 34.3398 2.07645 34.3398 2.25334C34.3398 2.43023 34.1629 2.60712 33.9861 2.60712C33.8092 2.60712 33.986 2.43023 33.8092 2.60712C33.8092 2.78402 33.8092 2.78402 33.6323 2.78402H33.4554C33.4554 2.78402 33.4554 2.96091 33.2785 2.96091C33.1016 3.1378 33.2785 3.31469 33.2785 3.31469C33.2785 3.84537 32.9247 4.90672 32.2171 7.20633C31.3327 9.68282 30.802 13.2207 30.802 13.2207C30.2713 16.2278 29.0331 18.8812 28.6793 19.5888C28.3255 20.4732 27.6179 21.5346 27.2641 22.2422C26.9104 22.7728 26.7335 23.6573 26.2028 23.8342C25.6721 24.0111 25.4952 24.5418 25.4952 24.5418C25.4952 24.5418 25.3183 22.596 25.6721 20.6501C26.0259 18.7043 26.3797 17.2892 26.5566 16.7585C26.7335 16.2278 26.9104 15.6972 26.9104 15.3434C27.0873 14.9896 27.0873 14.8127 26.9104 14.8127C26.7335 14.8127 26.2028 14.4589 26.2028 14.4589C26.2028 14.4589 26.0259 14.282 25.6721 14.282C25.3183 14.282 25.1414 14.1051 24.9645 14.1051C24.7876 14.1051 24.6108 13.9282 24.4339 13.9282C24.257 13.9282 24.257 13.9282 24.257 13.9282C24.257 13.9282 24.257 13.9282 24.257 14.1051C24.257 14.282 23.9032 14.8127 23.9032 14.9896C23.9032 14.9896 23.3725 14.9896 22.8418 15.3434C22.3112 15.6972 21.2498 16.2278 20.3654 17.643C19.4809 19.0581 19.1271 19.5888 18.9502 20.2964C18.7733 21.0039 18.5964 21.3577 18.4195 22.4191C18.2426 23.4804 18.2426 24.0111 18.4195 24.3649C18.5964 24.7187 18.5964 24.7187 18.9502 24.8956C19.1271 25.0724 19.4809 25.4262 19.6578 25.0724C20.0116 24.8956 20.7191 24.188 21.0729 24.0111C21.4267 23.8342 21.9574 22.7728 22.6649 22.596C22.6649 22.596 22.6649 23.6573 22.6649 24.7187C22.6649 25.78 22.4881 26.6645 22.8418 26.8414C23.1956 27.0183 23.7263 27.9027 24.0801 27.9027C24.4339 27.9027 24.6108 27.5489 24.7877 27.7258C25.1414 27.9027 25.3183 27.7258 26.0259 26.8414C26.7335 25.78 29.0331 21.8884 30.0944 19.0581C30.0944 19.0581 30.0944 25.4262 32.394 27.7258C34.6936 30.0254 35.9319 30.5561 38.939 28.6103C38.939 28.6103 39.1159 28.7872 39.1159 28.6103C39.2928 28.6103 39.4697 28.0796 40.3542 27.5489C40.3542 27.5489 40.7079 29.141 41.7693 29.6716C42.8307 30.2023 43.7151 30.2023 44.2458 29.8485C44.7765 29.4948 45.484 28.6103 46.5454 27.1952C47.253 26.3107 47.253 25.4262 47.9605 24.3649C48.6681 23.3035 48.4912 22.7728 48.6681 22.4191C48.845 21.8884 49.3757 20.827 49.3757 20.827C49.3757 20.827 49.9064 21.3577 50.437 21.7115C50.9677 21.8884 50.7908 23.3035 50.6139 24.0111C50.437 24.7187 50.2601 27.7258 51.3215 29.141C52.3829 30.5561 53.2673 30.3792 53.9749 29.8485C54.6825 29.141 55.0362 28.2565 55.39 27.372C55.39 33.0326 58.0434 31.4406 59.1047 30.5561C60.1661 29.6716 61.935 27.5489 61.935 27.5489C62.2888 30.2023 63.8808 30.733 64.7653 30.5561C65.6498 30.3792 66.3573 28.9641 66.888 28.2565C67.4187 27.5489 68.6569 26.1338 69.0107 25.78C69.3645 25.4262 69.5414 24.8956 69.8952 24.5418C70.249 24.0111 71.6641 22.4191 71.6641 22.4191C71.6641 22.4191 72.1948 23.1266 72.3717 23.4804C72.5486 23.8342 73.7868 24.8956 74.3175 25.4262C74.8482 25.9569 75.202 27.0183 75.202 27.0183C75.202 27.0183 75.025 27.1952 74.8481 27.0183C74.6712 27.0183 74.4944 26.8414 74.3175 26.8414C74.1406 26.8414 73.7868 26.6645 73.7868 26.8414C73.6099 26.8414 73.433 26.8414 73.433 26.6645C73.2561 26.6645 73.2561 26.4876 73.0792 26.4876C72.9023 26.4876 72.9023 26.3107 72.7254 26.3107V26.1338L72.5486 26.3107C72.3717 26.3107 72.3717 26.3107 72.3717 26.4876C72.3717 26.4876 72.1948 26.4876 72.1948 26.3107C72.0179 26.1338 72.1948 26.1338 72.0179 26.3107C72.0179 26.4876 72.0179 26.1338 71.841 26.1338C71.841 26.1338 71.841 26.3107 71.6641 26.1338C71.4872 26.1338 71.4872 25.9569 71.4872 25.9569C71.6641 29.141 74.1406 30.2023 75.202 30.5561C76.0864 30.733 76.9709 30.733 77.6784 30.2023V30.5561C77.6784 30.5561 77.8553 30.2023 78.0322 30.2023V30.733C78.2091 30.3792 78.2091 29.8485 78.2091 29.6716C78.2091 29.4948 78.2091 29.6716 78.386 29.6716C78.386 29.8485 78.5629 29.6716 78.5629 29.6716C78.0322 29.3179 77.6784 28.2565 77.6784 28.2565Z" fill="black"/>
<path d="M48.4666 58.7784H48.2897C48.2897 58.7784 48.2897 58.9552 48.2897 59.1321C48.2897 59.309 48.1128 59.4859 48.1128 59.6628C48.1128 59.8397 48.1128 60.0166 48.1128 60.0166C48.1128 60.0166 48.1128 59.8397 48.2897 59.6628C48.4666 59.4859 48.4666 59.4859 48.4666 59.1321C48.4666 58.9552 48.6435 58.7784 48.4666 58.7784Z" fill="black"/>
<path d="M48.9955 57.1063V56.9294C48.9955 56.9294 48.9955 56.9294 48.9955 56.7525C48.9955 56.9294 48.9955 56.9294 48.9955 57.1063C48.8186 57.2832 48.8186 57.2832 48.8186 57.2832C48.9955 57.1063 48.9955 57.1063 48.9955 57.1063Z" fill="black"/>
<path d="M48.8351 56.7055C48.6582 56.7055 48.6582 56.8824 48.8351 56.7055C48.8351 56.8824 48.8351 56.8824 48.8351 56.8824V56.7055C48.8351 56.8824 48.8351 56.8824 48.8351 56.7055C48.8351 56.8824 48.8351 56.8824 48.8351 56.7055Z" fill="black"/>
<path d="M49.0149 58.265C49.0149 58.265 48.838 58.265 49.0149 58.265C49.0149 58.4419 49.0149 58.4419 49.0149 58.4419V58.265C49.0149 58.4419 49.0149 58.4419 49.0149 58.265Z" fill="black"/>
<path d="M28.3394 51.8871C27.455 52.2408 26.9243 52.4177 27.1012 51.0026C27.1012 51.0026 27.9856 42.6887 31.3466 36.4974C31.8773 35.613 31.8773 34.5516 31.7004 33.6672C31.7004 32.7827 30.639 32.252 30.2852 32.0751C30.1083 32.0751 29.4008 31.8982 29.047 31.8982C28.6932 31.8982 28.3394 31.8982 28.1625 31.8982C28.1625 31.8982 27.9856 31.8982 27.8087 31.8982C27.6318 31.8982 27.6318 32.0751 27.455 32.0751C27.2781 32.0751 27.1012 32.0751 27.1012 32.252C26.9243 32.6058 26.7474 33.1365 25.1553 37.5588C23.5633 41.9811 22.3251 46.5803 22.502 49.5875C22.6789 52.5946 24.4478 54.1866 26.3936 54.7173C28.3394 55.248 30.9928 52.5946 32.5848 51.1795C34.1769 49.7643 35.0613 48.8799 35.0613 48.8799C35.0613 48.8799 32.7617 49.7643 30.9928 50.6488C31.1697 50.6488 29.2239 51.5333 28.3394 51.8871Z" fill="black"/>
<path d="M85.7963 43.8339C83.4967 47.5487 82.2584 49.1407 82.2584 49.1407C82.2584 49.1407 82.2584 47.5487 82.2584 46.8411C82.2584 46.1335 82.2584 45.7797 82.6122 44.7184C82.966 43.8339 83.1429 42.7726 83.4967 41.3574C83.6736 40.1192 84.0274 39.0578 84.558 37.112C84.7349 36.7582 84.7349 36.5813 84.9118 36.0507C85.9732 35.8738 87.0345 35.6969 87.3883 35.6969C87.919 35.52 89.1572 35.1662 90.2186 34.9893C88.8034 37.9965 87.2114 41.5343 85.7963 43.8339ZM101.186 39.4116C101.717 37.4658 103.486 35.3431 103.486 35.3431C103.839 34.9893 104.193 34.6355 104.193 34.8124C104.37 34.9893 104.901 34.9893 105.078 35.1662C105.254 35.3431 105.431 35.3431 104.901 36.2275C104.37 37.112 102.778 39.2347 102.778 39.2347C102.247 39.7654 101.54 40.6499 100.478 41.7112C100.832 41.0036 101.009 40.2961 101.186 39.4116ZM67.2226 52.5016C66.8688 54.4475 64.923 58.6929 63.5078 57.8084C62.0927 56.9239 63.154 52.8554 67.0457 50.0251C67.2226 49.8483 67.3995 49.8483 67.5764 49.6714C67.3995 50.7327 67.3995 51.971 67.2226 52.5016ZM55.3708 42.4188C55.3708 42.5957 55.1939 42.7726 55.1939 43.1263C54.4863 44.0108 53.7788 44.5415 53.425 44.7184C53.0712 45.0722 53.0712 44.5415 53.2481 43.8339C53.425 43.1263 53.7788 42.065 54.8401 41.1805C55.3708 40.6499 55.9015 40.473 56.0784 40.473C55.7246 41.0036 55.5477 41.7112 55.3708 42.4188ZM74.2983 41.7112C75.5365 39.5885 76.5979 39.4116 76.7747 39.9423C76.9516 40.6499 74.6521 42.9495 73.9445 43.8339C73.7676 44.0108 73.5907 44.1877 73.4138 44.3646C73.4138 43.4801 73.7676 42.5957 74.2983 41.7112ZM99.0632 46.3104C100.125 51.0865 103.662 53.3861 106.139 54.2706C109.146 55.3319 113.215 54.0937 113.922 53.563C114.63 53.2092 114.807 53.0323 114.099 53.0323C113.568 53.0323 110.207 53.7399 108.969 53.563C107.731 53.3861 107.023 53.3861 105.608 52.3247C104.193 51.2634 102.778 49.6714 101.363 46.4873C101.186 46.1335 101.009 45.2491 100.832 44.5415L101.009 44.3646C101.363 44.0108 101.54 43.8339 101.717 43.657C102.601 42.7726 104.37 41.5343 105.785 40.2961C107.023 39.0578 108.438 37.6427 108.792 37.2889C109.146 36.7582 109.854 35.6969 110.207 35.3431C110.384 35.1662 110.384 34.9893 110.384 34.8124C110.384 34.6355 110.384 34.4586 110.207 34.2817C110.031 34.1048 110.384 33.9279 110.207 33.3973C110.031 32.8666 109.323 32.8666 108.969 32.8666C108.615 32.8666 107.377 32.5128 107.023 32.5128C106.67 32.5128 106.139 32.3359 105.962 32.3359C105.785 32.3359 105.785 32.159 105.785 32.159C105.608 32.3359 105.078 32.159 104.547 32.159C104.193 32.159 103.662 32.159 103.486 32.5128C103.309 32.8666 102.601 33.3973 102.07 34.1048C101.363 34.8124 101.186 35.6969 101.186 35.6969C100.655 36.5813 98.8863 38.8809 99.0632 43.4801C99.0632 43.657 99.0632 43.657 99.0632 43.8339C96.2329 46.8411 92.872 50.202 91.9875 51.0865C90.5724 52.5016 90.2186 52.8554 89.8648 52.5016C89.511 52.1479 91.103 46.4873 91.6337 44.5415C92.1644 42.5957 93.0489 39.5885 93.7564 36.0507C93.9333 35.52 94.1102 34.8124 94.2871 33.9279C95.7022 33.5742 97.2943 33.2204 98.8863 32.8666C102.247 31.9821 109.854 29.6825 111.976 29.1519C111.976 29.1519 114.63 28.4443 115.337 27.9136C116.045 27.5598 116.929 27.206 117.283 27.206C117.283 27.206 117.46 27.206 117.637 27.0291V26.8523C117.637 26.8523 117.814 26.6754 117.991 26.6754H117.814C117.814 26.6754 117.637 26.6754 117.637 26.4985C117.637 26.4985 117.637 26.3216 117.46 26.4985C117.46 26.4985 116.929 26.4985 116.752 26.4985C116.752 26.4985 115.691 26.6754 113.568 27.0291C113.568 27.0291 97.648 30.3901 96.2329 30.7439C96.2329 30.7439 95.8791 30.9208 95.1716 30.9208C96.056 27.7367 97.1174 24.3758 97.1174 24.3758C97.2943 24.022 97.648 23.1375 97.648 22.9606C97.648 22.7837 97.8249 22.6068 97.648 22.43C97.4712 22.2531 97.648 22.0762 97.4711 22.0762C97.4711 22.0762 97.1174 21.8993 96.9405 21.8993C96.7636 21.8993 96.4098 21.7224 96.2329 21.8993C96.056 22.0762 95.8791 22.0762 95.5253 22.2531C95.1716 22.4299 94.9947 22.2531 94.8178 22.2531C94.6409 22.2531 94.2871 22.0762 94.1102 22.2531C93.9333 22.4299 94.1102 22.4299 93.9333 22.6068C93.7564 22.6068 93.7564 22.7837 93.7564 22.7837C93.7564 23.1375 93.5795 23.4913 93.5795 23.4913C93.5795 23.4913 93.5795 24.1989 93.2257 25.2602C92.872 26.3216 92.5182 27.3829 91.8106 30.2132C91.6337 30.7439 91.4568 31.2746 91.2799 31.9821C90.0417 32.159 88.9803 32.5128 88.0959 32.6897C87.3883 32.8666 86.5038 33.0435 85.4425 33.2204C85.7963 31.4515 86.1501 29.8594 86.327 29.1519C86.5038 27.7367 86.327 26.4985 86.327 26.4985C86.1501 25.2602 85.9732 24.1989 85.6194 23.6682C85.0887 23.1375 84.7349 22.7837 84.2042 22.7837C83.8504 22.7837 83.4967 22.7837 83.3198 22.7837C83.1429 22.7837 83.1429 23.1375 83.1429 23.1375C82.7891 23.1375 82.4353 23.3144 82.6122 24.1989C82.7891 25.0833 82.0815 29.5056 81.1971 33.2204C81.1971 33.3973 81.0202 33.7511 81.0202 33.9279C79.0744 34.2817 77.4823 34.4586 76.9517 34.4586C75.7134 34.4586 75.5365 34.4586 75.1827 34.2817C75.1827 34.2817 74.652 34.1048 74.652 34.2817C74.652 34.4586 74.652 34.6355 74.652 34.6355C74.652 34.6355 74.8289 34.8124 74.652 34.9893C74.652 34.9893 74.4752 35.1662 74.652 35.1662C74.8289 35.3431 75.1827 35.52 75.3596 35.6969C75.7134 35.8738 76.0672 36.0507 76.2441 36.0507C76.2441 36.0507 76.5979 36.4044 77.6592 36.2275C77.6592 36.2275 79.0744 36.2275 80.4895 36.2275C80.1357 37.6427 79.7819 38.3503 79.7819 38.3503C79.7819 38.3503 79.2513 39.4116 77.4823 43.3032C75.7134 47.1949 74.1214 48.7869 73.4138 48.61C73.06 48.61 72.8831 47.7255 72.8831 47.1949C72.8831 47.018 72.8831 47.018 72.8831 46.8411C72.8831 46.3104 72.8831 45.7797 72.8831 45.2491C74.4752 43.657 76.421 41.5343 77.3054 40.6499C78.3668 39.4116 77.3054 38.8809 76.7747 38.8809C76.0672 38.8809 75.3596 39.0578 73.7676 40.8267C72.7062 41.8881 72.1755 43.8339 71.8218 45.4259C71.1142 45.9566 70.7604 46.1335 70.7604 46.1335C70.5835 46.1335 70.2297 46.4873 69.6991 46.8411C69.8759 46.1335 70.0528 45.4259 70.2297 44.8953C70.4066 43.4801 70.4066 43.4801 70.4066 43.4801C70.4066 43.3032 70.4066 43.1263 70.4066 43.1263C70.5835 41.7112 70.2297 41.0036 69.876 41.0036C69.5222 41.0036 69.5222 40.8267 69.1684 40.473C68.8146 40.2961 68.6377 40.2961 68.4608 40.473C68.2839 40.6499 68.2839 40.473 68.107 40.473C68.107 40.473 68.107 40.473 67.3995 41.0036C66.8688 41.5343 66.1612 42.4188 65.4537 43.3032C64.7461 44.1877 63.5078 45.0722 62.9771 44.0108C62.4465 43.1263 62.8003 41.3574 62.9771 41.0036C63.3309 40.6499 63.3309 40.473 63.154 40.473C63.154 40.473 62.8003 40.2961 62.6234 40.473C62.2696 40.6499 62.2696 40.6499 62.0927 41.0036C61.9158 41.1805 61.7389 41.5343 61.0313 42.2419C60.1469 42.9495 57.4935 46.3104 57.3166 46.6642C57.1397 47.018 57.1397 46.8411 56.9628 46.8411C56.9628 46.8411 57.1397 45.6028 57.1397 44.8953C57.1397 44.1877 57.4935 42.7726 58.0242 42.065C58.378 41.3574 58.7317 40.473 58.7317 40.473C58.9086 40.1192 59.0855 39.4116 59.0855 39.2347C59.0855 39.0578 59.0855 38.8809 59.0855 38.8809C59.0855 38.8809 58.5548 38.8809 58.2011 38.704C57.8473 38.704 57.4935 38.5271 57.3166 38.5271C57.1397 38.5271 56.4321 38.3503 56.4321 38.3503C56.4321 38.3503 56.0783 38.8809 55.9015 39.5885C55.5477 39.5885 55.017 39.7654 54.6632 39.9423C54.1325 40.1192 52.8943 40.8267 52.1867 42.7726C51.4792 44.7184 51.8329 45.2491 52.0098 45.4259C52.1867 45.4259 52.5405 45.9566 52.8943 45.6028C53.2481 45.4259 53.9556 45.0722 54.3094 44.7184C54.1325 46.1335 53.9556 47.5487 54.1325 47.9024C54.1325 48.61 53.7787 48.7869 54.6632 49.4945C55.5477 50.202 55.3708 50.202 55.7246 50.0251C56.0784 49.8483 56.2552 50.0251 56.4321 50.202C56.609 50.3789 56.9628 50.5558 57.1397 50.3789C57.3166 50.202 57.4935 49.6714 58.0242 48.9638C58.5549 48.2562 60.8545 44.5415 61.9158 43.3032C61.9158 43.3032 61.7389 45.4259 63.5078 45.6028C65.2767 45.7797 65.8074 44.1877 67.5764 43.657C67.5764 43.657 67.7532 44.5415 67.5764 45.4259C67.5764 45.4259 67.3995 47.018 67.2226 48.7869C66.6919 49.3176 66.1612 49.6714 65.4537 50.202C61.9158 53.2092 59.2624 57.8084 61.562 60.2849C64.2154 63.2921 67.3995 56.9239 68.4608 51.971C68.8146 50.5558 68.8146 49.4945 68.9915 48.61C70.0529 47.7255 70.5835 47.1949 70.9373 46.8411C71.1142 46.8411 71.1142 46.6642 71.2911 46.6642C71.2911 46.8411 71.2911 47.018 71.2911 47.1949C71.2911 47.1949 70.9373 48.7869 72.1756 49.8483C73.4138 50.7327 74.6521 50.7327 76.5979 47.7255C78.5437 44.7184 78.7206 44.3646 78.7206 44.3646C78.7206 44.3646 78.7206 45.6028 78.5437 47.3718C78.3668 48.9638 78.7206 51.6172 81.0202 52.8554C83.3198 54.2706 83.8504 52.5016 84.2042 51.4403C84.7349 50.3789 87.2114 46.3104 87.7421 44.8953C88.2727 43.4801 89.3341 42.2419 89.3341 42.2419C89.3341 42.2419 89.1572 43.657 88.8034 45.0722C88.4496 46.4873 88.4496 48.4331 88.2728 50.5558C88.0959 52.6785 88.6265 53.3861 88.6265 53.3861C89.511 54.6243 93.4026 50.9096 95.1716 49.4945C96.7636 48.61 98.0018 47.5487 99.0632 46.3104Z" fill="black"/>
<path d="M49.1119 51.0067C49.1119 50.8298 49.1119 50.8298 49.1119 51.0067C49.1119 50.8298 49.1119 50.8298 49.1119 50.8298C48.935 50.8298 48.935 50.8298 49.1119 51.0067C48.935 50.8298 48.935 51.0067 49.1119 51.0067C48.935 51.0067 49.1119 51.0067 49.1119 51.0067Z" fill="black"/>
<path d="M48.819 47.976C48.819 48.1529 48.6421 48.3298 48.6421 48.3298C48.6421 48.3298 48.2883 48.5067 48.2883 48.1529C48.6421 46.0302 48.6421 44.9688 48.6421 44.9688V44.7919C48.6421 44.9688 48.6421 45.4995 48.6421 45.6764C48.6421 45.8533 48.4652 46.2071 48.4652 46.384C48.4652 46.5608 48.6421 46.5608 48.4652 46.7377C48.4652 46.9146 48.2883 47.0915 48.2883 47.2684C48.2883 47.4453 48.4652 47.4453 48.4652 47.4453C48.2883 47.4453 48.2883 47.4453 48.2883 47.6222C48.6421 47.7991 48.819 47.976 48.819 47.976C48.819 47.976 48.9959 47.7991 48.819 47.976ZM48.2883 55.0517C48.2883 55.2286 48.4652 55.4055 48.2883 55.4055C48.2883 55.4055 48.2883 55.4055 48.2883 55.5823C48.2883 55.7592 48.1114 55.5823 48.1114 55.5823C48.1114 55.5823 48.1114 55.2286 48.1114 55.0517C48.1114 54.8748 48.1114 54.8748 48.1114 54.8748L48.2883 55.0517ZM37.8517 40.3696C37.6748 40.7234 37.1441 43.3768 37.1441 43.3768C37.1441 43.3768 34.4907 46.3839 33.4294 47.0915C32.368 47.7991 34.6676 43.7306 35.3752 42.6692C36.2596 41.431 37.321 40.5465 37.6748 40.1927C37.8517 40.0158 38.0286 40.0158 37.8517 40.3696ZM51.4724 34.886C52.3569 33.2939 53.2413 32.5863 53.4182 32.7632C53.5951 32.9401 53.5951 34.1784 52.5337 36.1242C51.4724 38.2469 49.5266 40.0158 49.5266 40.0158C49.7035 39.3083 50.5879 36.478 51.4724 34.886ZM51.4724 43.1999C51.6493 43.023 51.4724 43.023 51.4724 43.023H51.2955C51.2955 43.023 51.2955 43.023 51.2955 42.8461C51.2955 42.6692 51.2955 42.6692 51.1186 42.6692H50.9417H50.7648C50.7648 42.6692 50.7648 42.4923 50.5879 42.6692C50.411 42.8461 50.411 42.6692 50.2341 42.8461C50.2341 42.8461 49.5266 43.023 48.9959 43.023V42.8461C48.9959 42.6692 48.9959 42.6692 48.9959 42.6692C48.9959 42.4923 48.9959 42.4923 48.9959 42.4923V42.1385L48.819 41.9616C48.819 41.9616 49.3497 41.2541 50.0572 40.5465C50.7648 39.8389 52.5337 37.7162 53.4182 35.4166C54.3027 33.117 53.772 32.9401 53.0644 32.4095C52.3568 32.0557 51.1186 32.2326 50.2341 32.4095C50.2341 32.4095 48.819 32.5863 48.6421 32.5863C48.2883 32.5863 48.1114 32.7632 48.1114 32.9401C48.1114 33.117 47.9345 33.2939 47.7576 33.6477C47.5807 34.0015 47.5808 34.1784 47.4039 34.3553C47.227 34.5322 47.0501 35.0628 47.227 35.0628C47.4038 35.0628 47.4039 34.8859 47.4039 35.0628C47.4039 35.0628 47.4039 35.2397 47.4039 35.4166C47.4039 35.4166 47.0501 36.1242 46.8732 37.0087C46.5194 37.7162 45.458 40.3696 45.1042 41.0772C44.7505 41.7847 44.2198 42.6692 44.0429 43.1999C43.6891 43.7306 43.866 43.9075 43.3353 44.0843C42.9815 44.0843 42.6278 44.2612 42.4509 44.2612C42.274 44.4381 42.4509 44.615 42.0971 44.615C42.0971 44.7919 42.0971 44.615 42.0971 44.7919C42.0971 44.7919 42.0971 44.7919 41.9202 44.7919C41.9202 44.7919 41.9202 44.7919 42.0971 44.7919C42.0971 44.7919 42.0971 44.7919 42.0971 44.9688H42.274C42.274 45.1457 42.274 45.1457 42.274 45.1457C42.274 45.1457 42.4509 45.3226 42.6278 45.3226C42.6278 45.3226 41.0357 47.976 40.8588 48.5067C40.6819 49.0373 40.5051 49.0373 40.5051 48.1529C40.5051 47.4453 40.5051 43.023 40.8588 41.9616C41.2126 40.9003 41.3895 40.1927 41.0357 39.662C40.8588 39.4851 40.8588 39.3083 40.8588 39.1314C40.8588 39.1314 40.8588 38.9545 40.6819 38.9545L40.5051 38.7776C40.3282 38.7776 40.3281 38.7776 40.1513 38.7776C39.9744 38.7776 39.9744 38.7776 39.7975 38.7776C39.6206 38.7776 39.6206 38.7776 39.4437 38.7776C39.2668 38.7776 39.0899 38.9545 39.0899 38.9545C38.913 38.9545 38.7361 39.1314 38.5592 38.9545C38.5592 38.9545 38.5592 38.9545 38.3823 38.9545H38.2055C37.8517 39.1314 38.0286 38.9545 37.6748 38.9545C37.321 38.9545 37.1441 39.1314 35.5521 40.5465C33.96 41.9616 32.5449 44.9688 32.368 46.0302C32.0142 47.0915 31.6604 47.6222 32.0142 48.1529C32.5449 48.8604 33.2525 48.1529 34.1369 47.4453C34.8445 46.7377 36.6134 45.4995 36.6134 45.4995C36.6134 47.976 37.1441 51.8676 37.1441 52.929C37.321 53.9903 39.2668 54.6979 40.3282 54.521C41.3895 54.3441 41.9202 52.0445 42.6278 50.8063C43.3353 49.568 44.5736 47.0915 44.7505 46.9146C44.7505 47.0915 44.7505 47.4453 44.5736 47.6222C44.5736 47.6222 44.3967 50.2756 44.2198 53.1059C44.2198 53.1059 44.2198 53.8134 44.3967 53.9903C44.5736 54.1672 44.5736 54.6979 44.3967 54.8748C44.3967 55.2286 44.3967 56.113 44.3967 56.4668C44.3967 56.8206 44.2198 56.9975 44.0429 56.8206C44.0429 56.6437 44.0429 56.6437 44.0429 56.4668C44.0429 57.8819 43.866 58.9433 43.866 59.6509C43.866 60.8891 44.3967 61.2429 44.5736 61.4198C44.7505 61.5967 44.7505 61.2429 44.9274 61.5967C44.9274 61.5967 45.1042 61.7736 45.458 61.7736C45.8118 61.7736 45.8118 62.1274 45.9887 61.9505C46.1656 61.7736 45.9887 61.7736 46.1656 61.5967C46.3425 61.5967 46.5194 61.5967 46.6963 61.5967C46.8732 61.5967 47.0501 61.5967 47.0501 61.5967H47.227C47.227 61.5967 47.4039 61.4198 47.4039 61.066C47.4039 60.7122 47.5807 60.5353 47.5807 59.8278C47.5807 59.2971 47.5807 58.2357 47.5807 56.6437C47.5807 56.4668 47.5807 56.2899 47.7576 56.2899C47.9345 56.2899 47.9345 56.6437 47.7576 56.9975C47.5807 57.3513 47.5807 57.8819 47.7576 58.0588C47.9345 58.2357 47.9345 58.0588 47.9345 57.5282C47.9345 56.9975 47.9345 56.9975 47.9345 56.6437C47.9345 56.4668 47.7576 55.9361 47.7576 55.7592C47.9345 55.5823 47.7576 55.4055 47.9345 55.5823C48.1114 55.7592 48.2883 55.7592 48.2883 55.7592C48.2883 55.7592 48.2883 55.4055 48.1114 55.4055C47.9345 55.2286 47.9345 55.2286 47.9345 55.2286C47.9345 55.2286 47.5807 55.5823 47.5807 55.2286C47.5807 54.8748 47.7576 54.8748 47.7576 54.521C47.7576 54.1672 47.5807 54.1672 47.5807 53.9903C47.5807 53.8134 47.5807 53.8134 47.7576 53.8134C47.7576 53.8134 47.7576 53.4596 47.5807 53.4596C47.4039 53.4596 47.227 53.4596 47.227 53.1059C47.227 52.7521 47.227 52.3983 47.227 52.0445C47.227 52.0445 47.227 51.8676 47.5807 51.5138C47.9345 51.3369 47.5808 51.16 47.4039 50.9831C47.227 50.8063 47.5807 50.4525 47.5807 50.0987V49.7449C47.5807 49.7449 47.7576 49.568 47.9345 49.7449C48.1114 49.9218 47.9345 50.0987 47.9345 50.2756C47.9345 50.4525 47.9345 50.6294 47.9345 50.6294C47.9345 50.6294 47.9345 50.8063 48.1114 50.8063C48.1114 50.8063 48.2883 50.8063 48.2883 50.4525C48.2883 50.0987 48.4652 49.9218 48.2883 50.0987C48.1114 50.0987 48.1114 50.0987 48.2883 49.9218C48.4652 49.7449 48.2883 49.7449 48.2883 49.3911C48.2883 49.2142 48.2883 49.0373 48.2883 49.0373C48.2883 49.0373 48.1114 49.568 48.1114 49.0373C48.1114 48.8604 48.1114 48.6835 48.1114 48.5067H48.2883V48.3298C48.2883 48.3298 48.2883 48.3298 48.1114 48.3298C47.9345 48.3298 48.1114 48.3298 48.1114 48.3298C48.1114 48.3298 48.1114 48.1529 48.1114 47.976C48.1114 47.4453 48.4652 47.0915 48.4652 46.5608C48.4652 46.0302 48.6421 45.3226 48.6421 45.3226V44.7919C48.819 44.7919 48.9959 44.7919 48.9959 44.7919C50.0572 44.4381 50.9417 43.9075 50.9417 43.9075C50.9417 43.9075 50.5879 44.0843 50.7648 43.9075C50.9417 43.7306 51.1186 43.7306 51.1186 43.7306C51.1186 43.7306 51.4724 43.3768 51.4724 43.1999Z" fill="black"/>
<path d="M49.0228 53.4515L48.8459 53.2746C48.8459 53.2746 48.6691 53.6284 48.8459 53.8053C49.0228 54.1591 49.0228 53.4515 49.0228 53.4515Z" fill="black"/>
<path d="M48.7374 52.2165C48.7374 52.2165 48.7374 52.0396 48.7374 52.2165C48.7374 52.0396 48.7374 52.0396 48.7374 52.0396V51.8627C48.5605 51.6858 48.5605 52.0396 48.5605 52.0396C48.5605 52.0396 48.7374 52.0396 48.7374 52.2165Z" fill="black"/>
</svg>
